# xmcd
#
# Track frame offsets:
#	150
#	22050
#	48000
#	70650
#	96300
#	118350
#	133575
#	162600
#	176400
#	198300
#	240525
#	262200
#	297900
#
# Disc length: 4359 seconds
#
# Revision: 3
# Processed by: cddbd v1.4PL0 Copyright (c) Steve Scherf et al.
# Submitted via: CDmax 1.8
#
DISCID=c311050d
DTITLE=Various Artist - WRFG Presents The 1st Annual Back Porch Blues Festival
DYEAR=1900
DGENRE=Blues
TTITLE0=Slim Fatz, Barefoot Dave and Donny McCormick - Have You Ever Seen TheR
TTITLE0=ain?
TTITLE1=Little Joey's Jumpin' Jive - Fanny Mae
TTITLE2=Andrew Black Band - Cherry Red Wine
TTITLE3=Breeze Kings - John Henry
TTITLE4=Heaven Davis and the Aggravatin' Papas  - Nothin' But a Man
TTITLE5=Liz Melendez - Just a Teeny Weeny Bit of Your Love
TTITLE6=Well Hungarians - How Blue Can You Get?
TTITLE7=Breeze Kings - Certainly All
TTITLE8=Little Joey's Jumpin' Jive - You Belong To Me
TTITLE9=Kathy Carllile and the Aggravatin' Pappas - Goin' Down Slow
TTITLE10=Heaven Davis and the Aggravatin' Papas  - Black Drawers
TTITLE11=Well Hungarians - Ain't My Cross To Bare
TTITLE12=Slim Fatz, Barefoot Dave and Donny McCormick - Poor Boy
EXTD=Live at Darwin's
EXTT0=
EXTT1=
EXTT2=
EXTT3=
EXTT4=
EXTT5=
EXTT6=
EXTT7=
EXTT8=
EXTT9=
EXTT10=
EXTT11=
EXTT12=
PLAYORDER=
